<svg xmlns="http://www.w3.org/2000/svg" version="1.1" viewBox="0 0 257 296" style="shape-rendering:geometricPrecision; text-rendering:geometricPrecision; image-rendering:optimizeQuality; fill-rule:evenodd; clip-rule:evenodd" xmlns:xlink="http://www.w3.org/1999/xlink">
<g></g>
<g><path style="opacity:1" fill="#3a0c18" d="M 239.5,111.5 C 237.152,111.592 235.486,112.592 234.5,114.5C 234.167,114.5 233.833,114.5 233.5,114.5C 223.093,112.926 218.593,106.926 220,96.5C 220.66,94.6763 221.827,93.343 223.5,92.5C 222.587,95.0547 221.92,97.7214 221.5,100.5C 221.833,102.167 222.167,103.833 222.5,105.5C 224.751,106.695 227.085,107.695 229.5,108.5C 230.705,106.862 232.038,106.529 233.5,107.5C 234.192,106.975 234.692,106.308 235,105.5C 237.044,106.772 238.878,106.439 240.5,104.5C 241.247,101.593 241.581,98.7597 241.5,96C 240.027,95.2904 239.36,94.1238 239.5,92.5C 234.312,91.6997 229.312,91.3664 224.5,91.5C 231.366,87.1014 237.533,88.1014 243,94.5C 245.777,101.053 244.611,106.72 239.5,111.5 Z" data-index="1"></path></g>
<g><path style="opacity:1" fill="#390d17" d="M 23.5,95.5 C 30.4742,101.937 29.3075,106.604 20,109.5C 16.4656,107.478 14.9656,104.478 15.5,100.5C 17.3494,97.4153 20.0161,95.7486 23.5,95.5 Z" data-index="2"></path></g>
<g></g>
<g><path style="opacity:1" fill="#3d0e18" d="M 31.5,82.5 C 34.3793,86.5314 33.7127,89.8647 29.5,92.5C 22.6539,92.3012 20.6539,88.9679 23.5,82.5C 26.1667,81.1667 28.8333,81.1667 31.5,82.5 Z" data-index="4"></path></g>
<g><path style="opacity:1" fill="#7a6a6e" d="M 33.5,79.5 C 35.5,79.5 37.5,79.5 39.5,79.5C 36.7276,80.0823 34.0609,81.0823 31.5,82.5C 31.427,80.9731 32.0937,79.9731 33.5,79.5 Z" data-index="5"></path></g>
<g></g>
<g><path style="opacity:1" fill="#3d151e" d="M 40.5,70.5 C 41.8754,73.8158 41.5421,76.8158 39.5,79.5C 37.5,79.5 35.5,79.5 33.5,79.5C 31.5599,73.4215 33.8933,70.4215 40.5,70.5 Z" data-index="7"></path></g>
<g><path style="opacity:1" fill="#36101a" d="M 210.5,53.5 C 215.121,52.9927 219.454,53.826 223.5,56C 229.164,62.8493 228.498,69.016 221.5,74.5C 220.833,74.8333 220.167,75.1667 219.5,75.5C 208.176,76.6744 203.009,71.6744 204,60.5C 205.41,57.3579 207.577,55.0246 210.5,53.5 Z" data-index="8"></path></g>
<g><path style="opacity:1" fill="#430213" d="M 211.5,54.5 C 213.924,54.1924 216.257,54.5258 218.5,55.5C 219.381,56.9705 220.714,57.8038 222.5,58C 223.227,59.3988 223.727,60.8988 224,62.5C 224.333,62.1667 224.667,61.8333 225,61.5C 226.842,66.8382 225.009,70.6715 219.5,73C 214.976,73.9254 210.809,73.0921 207,70.5C 206.296,68.7216 205.796,66.8882 205.5,65C 206.617,62.2687 207.283,59.4353 207.5,56.5C 209.38,56.7709 210.713,56.1042 211.5,54.5 Z" data-index="9"></path></g>
<g></g>
<g><path style="opacity:1" fill="#420213" d="M 224.5,91.5 C 229.312,91.3664 234.312,91.6997 239.5,92.5C 239.36,94.1238 240.027,95.2904 241.5,96C 241.581,98.7597 241.247,101.593 240.5,104.5C 238.878,106.439 237.044,106.772 235,105.5C 234.692,106.308 234.192,106.975 233.5,107.5C 232.038,106.529 230.705,106.862 229.5,108.5C 227.085,107.695 224.751,106.695 222.5,105.5C 222.167,103.833 221.833,102.167 221.5,100.5C 221.92,97.7214 222.587,95.0547 223.5,92.5C 223.5,91.8333 223.833,91.5 224.5,91.5 Z" data-index="11"></path></g>
<g><path style="opacity:1" fill="#401722" d="M 198.5,31.5 C 201.34,36.6354 201.006,41.6354 197.5,46.5C 193.56,49.2028 189.227,50.0362 184.5,49C 183.944,48.6174 183.611,48.1174 183.5,47.5C 186.167,47.5 188.833,47.5 191.5,47.5C 191.5,46.5 191.5,45.5 191.5,44.5C 193.331,45.0522 194.997,45.0522 196.5,44.5C 198.241,40.1661 198.908,35.8328 198.5,31.5 Z" data-index="12"></path></g>
<g><path style="opacity:1" fill="#e7ddde" d="M 32.5,23.5 C 31.8321,28.1606 33.8321,30.1606 38.5,29.5C 35.8685,30.7277 33.2018,31.2277 30.5,31C 29.6233,34.5721 28.6233,38.0721 27.5,41.5C 26.8333,42.1667 26.1667,42.8333 25.5,43.5C 23.0078,40.8687 20.6745,41.0354 18.5,44C 20.994,46.3932 20.3273,47.5599 16.5,47.5C 16.5,46.1667 16.5,44.8333 16.5,43.5C 14.7085,43.366 13.0418,43.6993 11.5,44.5C 11.5,43.8333 11.1667,43.5 10.5,43.5C 13.4308,42.5697 15.4308,40.5697 16.5,37.5C 16.9106,38.2624 17.0773,39.2624 17,40.5C 18.9923,39.6719 20.4923,38.3386 21.5,36.5C 27.4172,38.2567 28.7505,36.59 25.5,31.5C 30.0687,30.8042 32.402,28.1375 32.5,23.5 Z" data-index="13"></path></g>
<g><path style="opacity:1" fill="#331019" d="M 25.5,31.5 C 28.7505,36.59 27.4172,38.2567 21.5,36.5C 20.7564,33.0504 22.0897,31.3838 25.5,31.5 Z" data-index="14"></path></g>
<g><path style="opacity:1" fill="#420114" d="M 198.5,31.5 C 198.908,35.8328 198.241,40.1661 196.5,44.5C 194.997,45.0522 193.331,45.0522 191.5,44.5C 191.5,45.5 191.5,46.5 191.5,47.5C 188.833,47.5 186.167,47.5 183.5,47.5C 182.508,47.6716 181.842,47.3382 181.5,46.5C 180.781,43.9275 179.781,41.4275 178.5,39C 178.78,35.1157 180.446,31.949 183.5,29.5C 186.514,29.0147 189.514,28.6814 192.5,28.5C 193.976,30.5713 195.976,31.5713 198.5,31.5 Z" data-index="15"></path></g>
<g></g>
<g><path style="opacity:1" fill="#3a0e19" d="M 40.5,22.5 C 40.5,23.1667 40.8333,23.5 41.5,23.5C 41.9754,26.3126 40.9754,28.3126 38.5,29.5C 33.8321,30.1606 31.8321,28.1606 32.5,23.5C 34.7565,20.0427 37.4232,19.7094 40.5,22.5 Z" data-index="17"></path></g>
<g><path style="opacity:1" fill="#8f8083" d="M 47.5,19.5 C 47.5,19.8333 47.5,20.1667 47.5,20.5C 45.8185,22.0075 43.8185,23.0075 41.5,23.5C 40.8333,23.5 40.5,23.1667 40.5,22.5C 42.9538,21.7729 45.2872,20.7729 47.5,19.5 Z" data-index="18"></path></g>
<g><path style="opacity:1" fill="#3e161e" d="M 58.5,15.5 C 57.0467,22.3163 53.38,23.9829 47.5,20.5C 47.5,20.1667 47.5,19.8333 47.5,19.5C 47.178,17.2776 47.8446,15.4443 49.5,14C 52.7286,13.4138 55.7286,13.9138 58.5,15.5 Z" data-index="19"></path></g>
<g><path style="opacity:1" fill="#360e17" d="M 62.5,15.5 C 61.6993,13.9582 61.366,12.2915 61.5,10.5C 61.5569,9.39105 61.8902,8.39105 62.5,7.5C 66.531,4.69497 70.3643,5.02831 74,8.5C 75.5531,16.2804 72.3864,19.447 64.5,18C 63.6195,17.2917 62.9528,16.4584 62.5,15.5 Z" data-index="20"></path></g>
<g></g>
<g><path style="opacity: 1; visibility: hidden;" fill="#525252" d="M 49.5,93.5 C 50.8333,93.5 52.1667,93.5 53.5,93.5C 54.2436,96.9496 52.9103,98.6162 49.5,98.5C 50.5464,102.779 49.0464,105.445 45,106.5C 42.2027,101.939 43.3694,99.606 48.5,99.5C 48.3253,97.3792 48.6586,95.3792 49.5,93.5 Z" data-index="22"></path></g>
<g><path style="opacity:1" fill="#3e0c17" d="M 159.5,90.5 C 160.482,91.1408 161.482,91.8075 162.5,92.5C 163.607,91.9781 164.774,91.6448 166,91.5C 175.342,93.51 177.509,98.51 172.5,106.5C 169.406,108.347 166.072,108.847 162.5,108C 157.049,103.728 156.383,98.8944 160.5,93.5C 159.873,92.5832 159.539,91.5832 159.5,90.5 Z" data-index="23"></path></g>
<g><path style="opacity:1" fill="#565656" d="M 55.5,88.5 C 56.5,88.5 57.5,88.5 58.5,88.5C 58.5,89.5 58.5,90.5 58.5,91.5C 57.5,91.5 56.5,91.5 55.5,91.5C 55.5,90.5 55.5,89.5 55.5,88.5 Z" data-index="24"></path></g>
<g><path style="opacity:1" fill="#391018" d="M 160.5,78.5 C 162.038,82.7144 161.704,86.7144 159.5,90.5C 156.482,90.6646 153.482,90.498 150.5,90C 145.36,86.0316 145.194,81.865 150,77.5C 153.651,76.1963 157.151,76.5297 160.5,78.5 Z" data-index="25"></path></g>
<g><path style="opacity:1" fill="#480113" d="M 150.5,79.5 C 155.488,79.1205 158.155,81.4538 158.5,86.5C 155.5,86.5 152.5,86.5 149.5,86.5C 149.298,84.0504 149.631,81.717 150.5,79.5 Z" data-index="26"></path></g>
<g><path style="opacity:1" fill="#4e4e4e" d="M 185.5,70.5 C 195.543,70.0649 200.71,74.7316 201,84.5C 199.6,87.9024 197.433,90.7357 194.5,93C 196.036,94.5994 196.536,96.4328 196,98.5C 195.293,96.9194 194.46,95.4194 193.5,94C 177.384,93.2068 173.217,85.7068 181,71.5C 182.749,72.5532 184.249,72.2199 185.5,70.5 Z" data-index="27"></path></g>
<g><path style="opacity:1" fill="#40101b" d="M 144.5,63.5 C 148.731,66.2656 149.398,69.7656 146.5,74C 147.056,74.3826 147.389,74.8826 147.5,75.5C 147.565,75.9382 147.399,76.2716 147,76.5C 143.924,75.7117 140.758,75.2117 137.5,75C 135.848,73.53 134.848,71.6967 134.5,69.5C 135.938,67.6555 135.604,66.4888 133.5,66C 136.923,64.0961 140.59,63.2628 144.5,63.5 Z" data-index="28"></path></g>
<g><path style="opacity:1" fill="#36111b" d="M 124.5,57.5 C 130,56.8314 132.167,59.1647 131,64.5C 127.742,67.3459 124.908,67.0126 122.5,63.5C 122.5,62.1667 122.5,60.8333 122.5,59.5C 123.5,59.1667 124.167,58.5 124.5,57.5 Z" data-index="29"></path></g>
<g><path style="opacity:1" fill="#411f29" d="M 49.5,61.5 C 48.2614,63.7011 46.9281,65.8678 45.5,68C 41.3003,68.5962 39.967,66.9295 41.5,63C 44.2066,62.6049 46.8733,62.1049 49.5,61.5 Z" data-index="30"></path></g>
<g><path style="opacity:1" fill="#8c797d" d="M 117.5,58.5 C 119.042,59.3007 120.708,59.634 122.5,59.5C 122.5,60.8333 122.5,62.1667 122.5,63.5C 121.596,62.791 121.263,61.791 121.5,60.5C 119.833,60.5 118.167,60.5 116.5,60.5C 116.833,59.8333 117.167,59.1667 117.5,58.5 Z" data-index="31"></path></g>
<g><path style="opacity:1" fill="#3d161f" d="M 110.5,54.5 C 114.222,53.6799 116.555,55.0132 117.5,58.5C 117.167,59.1667 116.833,59.8333 116.5,60.5C 115.626,61.5251 114.459,62.1918 113,62.5C 110.545,61.3721 108.378,59.8721 106.5,58C 108.324,57.34 109.657,56.1733 110.5,54.5 Z" data-index="32"></path></g>
<g><path style="opacity:1" fill="#2c1f23" d="M 55.5,57.5 C 54.8559,60.8044 52.8559,62.1378 49.5,61.5C 49.7593,57.9319 51.7593,56.5985 55.5,57.5 Z" data-index="33"></path></g>
<g><path style="opacity:1" fill="#4f4f4f" d="M 147.5,40.5 C 148.583,40.5394 149.583,40.8728 150.5,41.5C 154.35,39.0225 158.35,38.8558 162.5,41C 164.686,44.1245 165.019,47.4578 163.5,51C 163.759,52.2613 164.426,53.2613 165.5,54C 170.542,51.5853 175.376,52.0853 180,55.5C 183.764,61.5383 182.597,66.3717 176.5,70C 164.595,71.0938 160.428,65.9272 164,54.5C 163.311,53.6433 162.478,52.9767 161.5,52.5C 152.953,55.4134 148.953,52.5801 149.5,44C 149.022,42.6974 148.355,41.5307 147.5,40.5 Z" data-index="34"></path></g>
<g><path style="opacity:1" fill="#351e24" d="M 100.5,54.5 C 102.401,55.935 102.734,57.6017 101.5,59.5C 95.3287,58.8378 94.9953,57.1712 100.5,54.5 Z" data-index="35"></path></g>
<g><path style="opacity:1" fill="#43363a" d="M 55.5,57.5 C 56.7927,55.7041 58.2927,54.0375 60,52.5C 61.7058,53.3079 62.5391,54.6412 62.5,56.5C 60.0971,56.448 57.7638,56.7814 55.5,57.5 Z" data-index="36"></path></g>
<g><path style="opacity:1" fill="#30161e" d="M 16.5,47.5 C 13.324,49.2729 11.6573,48.2729 11.5,44.5C 13.0418,43.6993 14.7085,43.366 16.5,43.5C 16.5,44.8333 16.5,46.1667 16.5,47.5 Z" data-index="37"></path></g>
<g><path style="opacity:1" fill="#505050" d="M 147.5,40.5 C 140.186,44.5074 135.519,42.5074 133.5,34.5C 128.269,39.0235 124.269,38.1902 121.5,32C 122.608,26.977 125.608,25.3103 130.5,27C 132.451,28.7342 133.451,30.9009 133.5,33.5C 136.929,31.7486 140.595,31.2486 144.5,32C 145.416,32.3742 146.25,32.8742 147,33.5C 147.497,35.8098 147.663,38.1432 147.5,40.5 Z" data-index="38"></path></g>
<g><path style="opacity:1" fill="#505050" d="M 88.5,29.5 C 91.5,29.1667 92.8333,30.5 92.5,33.5C 90.8333,33.5 89.1667,33.5 87.5,33.5C 87.4326,32.0413 87.7659,30.7079 88.5,29.5 Z" data-index="39"></path></g>
<g><path style="opacity:1" fill="#535353" d="M 113.5,24.5 C 116.815,24.9717 119.149,26.805 120.5,30C 118.924,31.577 117.091,32.7437 115,33.5C 112.343,32.3143 109.843,30.9809 107.5,29.5C 103.638,31.8327 99.6376,31.9993 95.5,30C 96.8333,28.6667 98.1667,27.3333 99.5,26C 100.833,25.3333 102.167,25.3333 103.5,26C 104.381,27.4705 105.714,28.3038 107.5,28.5C 109.888,27.685 111.888,26.3516 113.5,24.5 Z" data-index="40"></path></g>
<g><path style="opacity:1" fill="#390e19" d="M 172.5,12.5 C 173.694,13.2719 174.694,14.2719 175.5,15.5C 172.318,14.1737 168.985,13.6737 165.5,14C 161.772,16.8869 161.105,20.2202 163.5,24C 165.966,24.6649 168.133,25.1649 170,25.5C 172.571,24.0227 173.071,22.0227 171.5,19.5C 171.833,19.1667 172.167,18.8333 172.5,18.5C 174.712,22.1097 175.712,21.443 175.5,16.5C 177.823,26.246 173.823,30.0793 163.5,28C 156.187,21.5376 156.854,16.2042 165.5,12C 167.885,11.4436 170.218,11.6103 172.5,12.5 Z" data-index="41"></path></g>
<g><path style="opacity:1" fill="#430213" d="M 175.5,15.5 C 175.5,15.8333 175.5,16.1667 175.5,16.5C 175.712,21.443 174.712,22.1097 172.5,18.5C 172.167,18.8333 171.833,19.1667 171.5,19.5C 173.071,22.0227 172.571,24.0227 170,25.5C 168.133,25.1649 165.966,24.6649 163.5,24C 161.105,20.2202 161.772,16.8869 165.5,14C 168.985,13.6737 172.318,14.1737 175.5,15.5 Z" data-index="42"></path></g>
<g><path style="opacity:1" fill="#39111b" d="M 150.5,5.5 C 147.033,5.99521 143.366,6.99521 139.5,8.5C 139.5,10.8333 139.5,13.1667 139.5,15.5C 140.833,15.5 142.167,15.5 143.5,15.5C 143.281,16.675 143.614,17.675 144.5,18.5C 145.795,17.9017 147.128,17.4017 148.5,17C 148.167,16.6667 147.833,16.3333 147.5,16C 149.473,15.5045 151.473,15.3379 153.5,15.5C 153.845,11.8849 153.178,8.55159 151.5,5.5C 152.458,5.9528 153.292,6.61947 154,7.5C 154.696,10.6089 155.862,13.4422 157.5,16C 154.176,18.6662 150.342,20.1662 146,20.5C 142.18,20.6816 139.68,19.0149 138.5,15.5C 138.5,13.5 138.5,11.5 138.5,9.5C 139.359,6.54795 141.359,4.71461 144.5,4C 146.881,3.26154 148.881,3.76154 150.5,5.5 Z" data-index="43"></path></g>
<g><path style="opacity:1" fill="#81646e" d="M 61.5,10.5 C 61.366,12.2915 61.6993,13.9582 62.5,15.5C 61.1667,15.5 59.8333,15.5 58.5,15.5C 59.7671,13.9611 60.7671,12.2944 61.5,10.5 Z" data-index="44"></path></g>
<g><path style="opacity:1" fill="#7e686b" d="M 133.5,10.5 C 133.5,10.1667 133.5,9.83333 133.5,9.5C 135.167,9.5 136.833,9.5 138.5,9.5C 138.5,11.5 138.5,13.5 138.5,15.5C 137.549,14.0813 137.216,12.4147 137.5,10.5C 136.167,10.5 134.833,10.5 133.5,10.5 Z" data-index="45"></path></g>
<g><path style="opacity:1" fill="#3c0b18" d="M 133.5,9.5 C 133.5,9.83333 133.5,10.1667 133.5,10.5C 130.848,14.3144 127.181,15.4811 122.5,14C 120.84,12.5123 119.84,10.679 119.5,8.5C 119.5,8.16667 119.5,7.83333 119.5,7.5C 123.034,0.492786 127.534,-0.17388 133,5.5C 133.49,6.79323 133.657,8.12656 133.5,9.5 Z" data-index="46"></path></g>
<g><path style="opacity:1" fill="#381820" d="M 113.5,4.5 C 113.5,5.83333 113.5,7.16667 113.5,8.5C 113.573,10.0269 112.906,11.0269 111.5,11.5C 106.879,14.7023 103.213,13.7023 100.5,8.5C 98.2573,7.52577 95.924,7.19244 93.5,7.5C 92.4907,12.3464 89.4907,14.1798 84.5,13C 81.7104,10.7897 80.877,7.95634 82,4.5C 86.2327,0.288987 90.0661,0.62232 93.5,5.5C 95.7427,6.47423 98.076,6.80756 100.5,6.5C 101.797,1.34523 105.13,-0.488101 110.5,1C 111.71,2.0391 112.71,3.20577 113.5,4.5 Z" data-index="47"></path></g>
<g><path style="opacity:1" fill="#420314" d="M 150.5,5.5 C 150.833,5.5 151.167,5.5 151.5,5.5C 153.178,8.55159 153.845,11.8849 153.5,15.5C 151.473,15.3379 149.473,15.5045 147.5,16C 147.833,16.3333 148.167,16.6667 148.5,17C 147.128,17.4017 145.795,17.9017 144.5,18.5C 143.614,17.675 143.281,16.675 143.5,15.5C 142.167,15.5 140.833,15.5 139.5,15.5C 139.5,13.1667 139.5,10.8333 139.5,8.5C 143.366,6.99521 147.033,5.99521 150.5,5.5 Z" data-index="48"></path></g>
<g><path style="opacity:1" fill="#450412" d="M 63.5,8.5 C 66.7216,8.10809 69.7216,8.60809 72.5,10C 72.507,11.5827 72.1737,13.2494 71.5,15C 68.854,15.4974 66.1873,15.6641 63.5,15.5C 63.5,13.1667 63.5,10.8333 63.5,8.5 Z" data-index="49"></path></g>
<g><path style="opacity:1" fill="#9c858b" d="M 113.5,4.5 C 114.642,6.97173 116.642,7.97173 119.5,7.5C 119.5,7.83333 119.5,8.16667 119.5,8.5C 117.5,8.5 115.5,8.5 113.5,8.5C 113.5,7.16667 113.5,5.83333 113.5,4.5 Z" data-index="50"></path></g>
<g><path style="opacity:1" fill="#430416" d="M 111.5,11.5 C 101.15,11.4784 99.8162,8.14509 107.5,1.5C 108.672,1.91862 109.672,2.58529 110.5,3.5C 111.48,6.08645 111.813,8.75312 111.5,11.5 Z" data-index="51"></path></g>
<g><path style="opacity:1" fill="#420315" d="M 84.5,3.5 C 89.4289,2.67414 92.0956,4.67414 92.5,9.5C 89.779,10.1406 87.1123,10.6406 84.5,11C 83.3511,8.54077 83.3511,6.04077 84.5,3.5 Z" data-index="52"></path></g>
<g><path style="opacity:1" fill="#441f26" d="M 171.5,111.5 C 172.183,113.176 173.517,113.843 175.5,113.5C 176.765,114.479 178.099,115.479 179.5,116.5C 181.203,118.507 181.537,120.507 180.5,122.5C 179.766,121.122 179.099,119.622 178.5,118C 175.415,116.847 172.581,116.014 170,115.5C 168.443,118.294 168.11,121.294 169,124.5C 170.492,125.92 171.992,127.254 173.5,128.5C 171.692,128.509 170.025,128.009 168.5,127C 164.169,121.813 164.836,117.313 170.5,113.5C 169.572,112.232 169.405,110.899 170,109.5C 170.278,110.416 170.778,111.082 171.5,111.5 Z" data-index="53"></path></g>
<g><path style="opacity:1" fill="#400413" d="M 180.5,122.5 C 179.631,126.115 177.297,128.115 173.5,128.5C 171.992,127.254 170.492,125.92 169,124.5C 168.11,121.294 168.443,118.294 170,115.5C 172.581,116.014 175.415,116.847 178.5,118C 179.099,119.622 179.766,121.122 180.5,122.5 Z" data-index="54"></path></g>
<g><path style="opacity:1" fill="#988c8e" d="M 233.5,114.5 C 233.833,114.5 234.167,114.5 234.5,114.5C 235.246,118.127 235.913,121.794 236.5,125.5C 236.167,125.5 235.833,125.5 235.5,125.5C 234.325,121.958 233.659,118.291 233.5,114.5 Z" data-index="55"></path></g>
<g><path style="opacity:1" fill="#3d0917" d="M 9.5,125.5 C 9.5,125.167 9.5,124.833 9.5,124.5C 8.89661,118.269 11.7299,114.935 18,114.5C 23.3404,117.227 24.6738,121.227 22,126.5C 17.6902,129.952 13.5235,129.619 9.5,125.5 Z" data-index="56"></path></g>
<g><path style="opacity:1" fill="#525252" d="M 43.5,130.5 C 42.4664,129.313 41.133,128.48 39.5,128C 38.1955,127.196 37.5288,126.029 37.5,124.5C 38.6467,122.194 39.9801,120.027 41.5,118C 39.6322,115.782 38.7989,113.282 39,110.5C 40.6667,109.5 42.3333,108.5 44,107.5C 44.8498,109.01 45.6831,110.51 46.5,112C 45.1195,114.006 43.7862,116.006 42.5,118C 44.0199,120.027 45.3533,122.194 46.5,124.5C 45.1786,126.332 44.1786,128.332 43.5,130.5 Z" data-index="57"></path></g>
<g><path style="opacity:1" fill="#372529" d="M 118.5,91.5 C 120.684,92.2663 123.018,92.9329 125.5,93.5C 126.208,97.992 127.208,102.492 128.5,107C 131.482,107.498 134.482,107.665 137.5,107.5C 137.215,109.288 137.548,110.955 138.5,112.5C 142.936,116.258 143.269,120.591 139.5,125.5C 141.167,127.167 140.833,128.167 138.5,128.5C 132.713,124.079 126.379,123.245 119.5,126C 117.307,128.025 116.307,130.525 116.5,133.5C 115.442,135.808 114.276,138.142 113,140.5C 111.164,138.396 108.998,138.062 106.5,139.5C 104.684,144.707 103.351,144.707 102.5,139.5C 97.1579,137.246 92.8246,138.412 89.5,143C 87.8659,143.494 86.1992,143.66 84.5,143.5C 83.9359,138.308 82.2692,133.475 79.5,129C 80.0345,127.463 80.3678,125.963 80.5,124.5C 78.5016,120.844 76.5016,117.177 74.5,113.5C 75.7113,112.126 76.7113,110.626 77.5,109C 74.8333,104.667 74.8333,100.333 77.5,96C 77.0946,95.0546 76.428,94.3879 75.5,94C 77.1556,92.2028 78.1556,90.0361 78.5,87.5C 76.8333,84.8333 75.1667,82.1667 73.5,79.5C 75.8275,78.276 78.1608,78.276 80.5,79.5C 85.7141,75.3069 91.5474,72.6402 98,71.5C 98.2319,75.1001 98.8986,78.7668 100,82.5C 100.833,83.3333 101.667,84.1667 102.5,85C 108.326,86.1048 113.659,88.2715 118.5,91.5 Z" data-index="58"></path></g>
<g></g>
<g><path style="opacity:1" fill="#4f4f4f" d="M 211.5,124.5 C 212.569,127.408 212.736,130.408 212,133.5C 207.272,139.813 202.105,140.146 196.5,134.5C 193.786,128.043 195.786,124.043 202.5,122.5C 202.5,120.833 202.5,119.167 202.5,117.5C 200.345,117.628 198.345,117.128 196.5,116C 191.101,110.699 191.434,105.699 197.5,101C 203.092,99.7481 207.259,101.581 210,106.5C 211.075,112.03 208.908,115.363 203.5,116.5C 203.215,118.288 203.548,119.955 204.5,121.5C 206.945,122.312 209.278,123.312 211.5,124.5 Z" data-index="60"></path></g>
<g><path style="opacity:1" fill="#3d0816" d="M 235.5,125.5 C 235.833,125.5 236.167,125.5 236.5,125.5C 241.41,125.241 245.41,126.907 248.5,130.5C 253.047,140.731 250.047,147.398 239.5,150.5C 239.238,149.022 239.571,147.689 240.5,146.5C 243.911,144.093 246.578,141.093 248.5,137.5C 247.909,135.734 247.076,134.067 246,132.5C 244.853,133.458 243.853,133.125 243,131.5C 240.335,136.186 238.668,141.186 238,146.5C 237.363,144.697 236.197,143.364 234.5,142.5C 235.996,138.81 235.663,135.31 233.5,132C 232.365,131.251 231.365,131.417 230.5,132.5C 229.12,134.174 227.787,135.84 226.5,137.5C 227.697,143.597 231.03,147.93 236.5,150.5C 232.768,150.05 229.602,148.383 227,145.5C 222.411,135.679 225.244,129.012 235.5,125.5 Z" data-index="61"></path></g>
<g><path style="opacity:1" fill="#3a3033" d="M 59.5,125.5 C 60.6491,125.791 61.3158,126.624 61.5,128C 61.3333,128.833 61.1667,129.667 61,130.5C 59.9914,128.975 59.4914,127.308 59.5,125.5 Z" data-index="62"></path></g>
<g><path style="opacity:1" fill="#291119" d="M 60.5,131.5 C 61.5,131.5 62.5,131.5 63.5,131.5C 63.5,132.5 63.5,133.5 63.5,134.5C 62.5,134.5 61.5,134.5 60.5,134.5C 60.5,133.5 60.5,132.5 60.5,131.5 Z" data-index="63"></path></g>
<g><path style="opacity:1" fill="#4f4f4f" d="M 43.5,130.5 C 44.404,131.209 44.7373,132.209 44.5,133.5C 51.3491,135.223 52.1825,138.556 47,143.5C 41.8982,143.073 39.8982,140.407 41,135.5C 42.883,134.347 43.7163,132.681 43.5,130.5 Z" data-index="64"></path></g>
<g><path style="opacity:1" fill="#440113" d="M 239.5,150.5 C 238.5,150.5 237.5,150.5 236.5,150.5C 231.03,147.93 227.697,143.597 226.5,137.5C 227.787,135.84 229.12,134.174 230.5,132.5C 231.365,131.417 232.365,131.251 233.5,132C 235.663,135.31 235.996,138.81 234.5,142.5C 236.197,143.364 237.363,144.697 238,146.5C 238.668,141.186 240.335,136.186 243,131.5C 243.853,133.125 244.853,133.458 246,132.5C 247.076,134.067 247.909,135.734 248.5,137.5C 246.578,141.093 243.911,144.093 240.5,146.5C 239.571,147.689 239.238,149.022 239.5,150.5 Z" data-index="65"></path></g>
<g><path style="opacity:1" fill="#3c171f" d="M 180.5,142.5 C 180.319,140.971 179.986,139.304 179.5,137.5C 173.033,134.027 170.867,135.693 173,142.5C 174.822,142.968 176.989,143.301 179.5,143.5C 178.22,144.931 176.553,145.598 174.5,145.5C 173.833,145.5 173.167,145.5 172.5,145.5C 169.76,143.1 168.927,140.1 170,136.5C 173.483,131.553 177.15,131.553 181,136.5C 181.789,138.712 181.622,140.712 180.5,142.5 Z" data-index="66"></path></g>
<g><path style="opacity:1" fill="#400312" d="M 180.5,142.5 C 180.5,143.167 180.167,143.5 179.5,143.5C 176.989,143.301 174.822,142.968 173,142.5C 170.867,135.693 173.033,134.027 179.5,137.5C 179.986,139.304 180.319,140.971 180.5,142.5 Z" data-index="67"></path></g>
<g></g>
<g><path style="opacity:1" fill="#2b1e22" d="M 149.5,139.5 C 150.5,139.5 151.5,139.5 152.5,139.5C 151.754,143.31 150.754,143.31 149.5,139.5 Z" data-index="69"></path></g>
<g><path style="opacity:1" fill="#390915" d="M 18.5,135.5 C 19.5676,136.434 20.901,136.768 22.5,136.5C 26.0333,140.233 26.3667,144.233 23.5,148.5C 21.283,149.369 18.9496,149.702 16.5,149.5C 11.9758,147.803 10.3092,144.469 11.5,139.5C 13.3904,137.422 15.7238,136.089 18.5,135.5 Z" data-index="70"></path></g>
<g></g>
<g><path style="opacity:1" fill="#978086" d="M 23.5,148.5 C 23.6287,150.216 23.962,151.883 24.5,153.5C 22.1946,151.401 19.5279,150.068 16.5,149.5C 18.9496,149.702 21.283,149.369 23.5,148.5 Z" data-index="72"></path></g>
<g></g>
<g><path style="opacity: 1; visibility: hidden;" fill="#3c262b" d="M 146.5,151.5 C 145.609,152.11 144.609,152.443 143.5,152.5C 143.522,148.683 145.356,146.349 149,145.5C 151.533,149.086 150.7,151.086 146.5,151.5 Z" data-index="74"></path></g>
<g></g>
<g><path style="opacity:1" fill="#4f4f4f" d="M 47.5,144.5 C 55.7021,145.156 57.5355,148.823 53,155.5C 46.394,156.894 43.7273,154.228 45,147.5C 46.045,146.627 46.8783,145.627 47.5,144.5 Z" data-index="76"></path></g>
<g><path style="opacity:1" fill="#371923" d="M 143.5,152.5 C 142.833,154.5 142.167,156.5 141.5,158.5C 138.739,159.085 137.073,158.085 136.5,155.5C 138.026,152.908 140.359,151.908 143.5,152.5 Z" data-index="77"></path></g>
<g><path style="opacity:1" fill="#3b141d" d="M 82.5,156.5 C 79.7531,156.813 77.0865,156.48 74.5,155.5C 73.2863,151.106 74.953,149.272 79.5,150C 81.0223,151.916 82.0223,154.083 82.5,156.5 Z" data-index="78"></path></g>
<g><path style="opacity:1" fill="#3c151d" d="M 179.5,151.5 C 182.623,156.591 181.289,159.924 175.5,161.5C 173.83,161.249 172.33,160.582 171,159.5C 169.21,151.789 172.043,149.122 179.5,151.5 Z" data-index="79"></path></g>
<g><path style="opacity:1" fill="#411d24" d="M 133.5,157.5 C 135.466,161.387 134.466,164.054 130.5,165.5C 128.292,164.137 125.959,162.97 123.5,162C 125.184,160.791 126.517,159.291 127.5,157.5C 129.5,156.167 131.5,156.167 133.5,157.5 Z" data-index="80"></path></g>
<g><path style="opacity:1" fill="#33111a" d="M 24.5,153.5 C 26.7463,154.21 29.0796,154.71 31.5,155C 35.2916,157.053 36.4582,160.219 35,164.5C 34.2917,165.381 33.4584,166.047 32.5,166.5C 35.911,161.154 34.5776,157.487 28.5,155.5C 25.0135,156.125 24.0135,157.958 25.5,161C 24.8333,161.333 24.1667,161.667 23.5,162C 24.8333,162.667 24.8333,163.333 23.5,164C 25.7693,166.023 28.4359,166.856 31.5,166.5C 29.2743,167.756 26.941,167.756 24.5,166.5C 22.4672,165.102 21.4672,163.102 21.5,160.5C 22.0567,157.954 23.0567,155.621 24.5,153.5 Z" data-index="81"></path></g>
<g><path style="opacity:1" fill="#400414" d="M 32.5,166.5 C 32.1667,166.5 31.8333,166.5 31.5,166.5C 28.4359,166.856 25.7693,166.023 23.5,164C 24.8333,163.333 24.8333,162.667 23.5,162C 24.1667,161.667 24.8333,161.333 25.5,161C 24.0135,157.958 25.0135,156.125 28.5,155.5C 34.5776,157.487 35.911,161.154 32.5,166.5 Z" data-index="82"></path></g>
<g><path style="opacity:1" fill="#525151" d="M 56.5,157.5 C 58.0383,159.522 59.8716,159.855 62,158.5C 67.2045,159.327 68.8711,162.327 67,167.5C 61.9029,170.951 58.4029,169.784 56.5,164C 57.7201,161.83 57.7201,159.663 56.5,157.5 Z" data-index="83"></path></g>
<g><path style="opacity:1" fill="#3e131d" d="M 111.5,162.5 C 115.151,158.425 118.817,158.592 122.5,163C 121.151,167.51 118.151,169.177 113.5,168C 110.943,163.371 108.276,163.371 105.5,168C 100.293,169.609 97.293,167.776 96.5,162.5C 94.901,162.232 93.5676,162.566 92.5,163.5C 90.4489,165.594 88.1155,165.927 85.5,164.5C 84.0042,162.027 83.0042,159.36 82.5,156.5C 84.8695,156.149 87.2028,155.982 89.5,156C 92.2146,156.875 93.5479,158.708 93.5,161.5C 96.6744,160.985 99.6744,159.985 102.5,158.5C 105.641,159.131 108.141,160.797 110,163.5C 110.765,163.43 111.265,163.097 111.5,162.5 Z" data-index="84"></path></g>
<g><path style="opacity:1" fill="#3f0515" d="M 243.5,161.5 C 244.836,163.01 246.003,164.677 247,166.5C 248.728,175.398 245.228,180.732 236.5,182.5C 234.833,182.5 233.167,182.5 231.5,182.5C 223.401,179.637 220.568,173.97 223,165.5C 225.864,160.796 230.031,158.462 235.5,158.5C 235.351,157.448 235.517,156.448 236,155.5C 237.579,158.553 240.079,160.553 243.5,161.5 Z" data-index="85"></path></g>
<g><path style="opacity:1" fill="#3f1620" d="M 176.5,169.5 C 176.5,170.167 176.5,170.833 176.5,171.5C 173.277,175.695 170.61,175.361 168.5,170.5C 170.852,166.253 173.518,165.92 176.5,169.5 Z" data-index="86"></path></g>
<g><path style="opacity:1" fill="#4e4f4f" d="M 74.5,167.5 C 80.5749,166.413 83.9083,168.913 84.5,175C 87.0762,175.606 89.4096,175.106 91.5,173.5C 96.0126,173.895 97.5126,176.229 96,180.5C 90.4332,185.136 87.2666,183.803 86.5,176.5C 82.6227,177.937 78.6227,178.437 74.5,178C 72.8757,176.883 71.8757,175.383 71.5,173.5C 72.1984,172.137 72.1984,170.971 71.5,170C 72.9423,169.623 73.9423,168.79 74.5,167.5 Z" data-index="87"></path></g>
<g></g>
<g><path style="opacity:1" fill="#380c18" d="M 34.5,169.5 C 34.56,168.957 34.8933,168.624 35.5,168.5C 38.5639,169.121 41.5639,169.955 44.5,171C 46.7289,173.553 47.0623,176.386 45.5,179.5C 41.6374,182.381 38.1374,182.048 35,178.5C 34.9127,175.293 34.746,172.293 34.5,169.5 Z" data-index="89"></path></g>
<g><path style="opacity:1" fill="#535353" d="M 103.5,177.5 C 105.199,177.34 106.866,177.506 108.5,178C 109.887,179.683 111.553,180.85 113.5,181.5C 110.886,181.277 109.219,182.444 108.5,185C 101.798,185.802 100.132,183.302 103.5,177.5 Z" data-index="90"></path></g>
<g><path style="opacity:1" fill="#4f4f4f" d="M 119.5,182.5 C 119.5,182.167 119.5,181.833 119.5,181.5C 119.389,180.883 119.056,180.383 118.5,180C 121.265,175.439 123.932,175.439 126.5,180C 124.952,183.11 122.618,183.943 119.5,182.5 Z" data-index="91"></path></g>
<g><path style="opacity:1" fill="#36151f" d="M 166.5,183.5 C 165.5,183.167 164.833,182.5 164.5,181.5C 164.825,179.868 165.825,178.868 167.5,178.5C 170.085,179.073 171.085,180.739 170.5,183.5C 169.167,183.5 167.833,183.5 166.5,183.5 Z" data-index="92"></path></g>
<g><path style="opacity:1" fill="#9d888d" d="M 231.5,182.5 C 233.167,182.5 234.833,182.5 236.5,182.5C 234.706,183.233 233.039,184.233 231.5,185.5C 231.167,185.5 230.833,185.5 230.5,185.5C 231.11,184.609 231.443,183.609 231.5,182.5 Z" data-index="93"></path></g>
<g><path style="opacity:1" fill="#40121b" d="M 50.5,181.5 C 54.0017,181.076 56.335,182.41 57.5,185.5C 57.3713,187.216 57.038,188.883 56.5,190.5C 54.0242,192.552 51.3576,192.885 48.5,191.5C 48.0679,190.29 47.4013,189.29 46.5,188.5C 46.8333,186.5 47.1667,184.5 47.5,182.5C 48.791,182.737 49.791,182.404 50.5,181.5 Z" data-index="94"></path></g>
<g><path style="opacity:1" fill="#86777a" d="M 57.5,185.5 C 58.2485,186.531 58.9152,187.698 59.5,189C 61.4913,189.374 63.158,190.207 64.5,191.5C 62.1732,191.335 60.0065,190.669 58,189.5C 57.6174,190.056 57.1174,190.389 56.5,190.5C 57.038,188.883 57.3713,187.216 57.5,185.5 Z" data-index="95"></path></g>
<g></g>
<g><path style="opacity: 1; visibility: hidden;" fill="#23191c" d="M 121.5,194.5 C 120.292,195.234 118.959,195.567 117.5,195.5C 117.5,194.5 117.5,193.5 117.5,192.5C 119.38,192.229 120.713,192.896 121.5,194.5 Z" data-index="97"></path></g>
<g><path style="opacity:1" fill="#3f161e" d="M 64.5,191.5 C 70.3178,186.742 73.4845,188.075 74,195.5C 68.486,200.154 65.3193,198.821 64.5,191.5 Z" data-index="98"></path></g>
<g><path style="opacity:1" fill="#3e2029" d="M 107.5,194.5 C 109.698,194.12 111.365,194.787 112.5,196.5C 111.739,197.391 110.739,198.058 109.5,198.5C 105.655,196.884 101.989,197.218 98.5,199.5C 96.6822,198.364 94.6822,197.697 92.5,197.5C 89.9023,198.267 87.4023,199.267 85,200.5C 83.0109,198.819 80.8442,197.486 78.5,196.5C 80.8233,195.658 83.1567,194.658 85.5,193.5C 87.3274,195.051 89.494,196.051 92,196.5C 94.2793,196.561 96.2793,195.895 98,194.5C 99.5553,195.848 101.389,196.514 103.5,196.5C 105.355,196.66 106.688,195.993 107.5,194.5 Z" data-index="99"></path></g>
<g><path style="opacity:1" fill="#525252" d="M 199.5,177.5 C 204.965,179.577 206.299,183.077 203.5,188C 201.564,188.813 199.564,189.313 197.5,189.5C 197.284,191.681 198.117,193.347 200,194.5C 200.935,199.615 198.768,202.282 193.5,202.5C 191.838,204.311 191.672,205.978 193,207.5C 194.102,212.407 192.102,215.073 187,215.5C 186.505,217.473 186.338,219.473 186.5,221.5C 184.052,221.99 182.385,221.157 181.5,219C 183.307,217.387 184.973,215.553 186.5,213.5C 184.714,209.303 186.047,206.636 190.5,205.5C 193.092,203.145 192.925,201.145 190,199.5C 188.279,193.719 190.445,191.052 196.5,191.5C 196.716,189.319 195.883,187.653 194,186.5C 192.84,181.461 194.674,178.461 199.5,177.5 Z" data-index="100"></path></g>
<g><path style="opacity:1" fill="#f4eaeb" d="M 221.5,207.5 C 223.017,207.511 224.184,208.177 225,209.5C 227.381,208.565 229.881,208.232 232.5,208.5C 233.263,209.268 234.263,209.768 235.5,210C 234.234,210.309 233.067,210.809 232,211.5C 231.667,215.5 231.333,219.5 231,223.5C 230.184,224.823 229.017,225.489 227.5,225.5C 227.611,226.117 227.944,226.617 228.5,227C 227.034,227.635 225.7,228.469 224.5,229.5C 223.232,228.572 221.899,228.405 220.5,229C 223.774,233.893 223.107,238.06 218.5,241.5C 219.246,242.736 219.579,244.07 219.5,245.5C 217.473,245.338 215.473,245.505 213.5,246C 215.334,250.498 214.001,253.665 209.5,255.5C 211.92,251.912 211.42,248.579 208,245.5C 205.316,246.068 202.816,247.068 200.5,248.5C 199.33,251.651 199.996,254.318 202.5,256.5C 202.586,261.016 201.586,265.516 199.5,270C 199.833,270.333 200.167,270.667 200.5,271C 197.577,273.517 194.577,275.351 191.5,276.5C 191.081,273.974 190.914,271.641 191,269.5C 184.138,269.178 181.638,272.178 183.5,278.5C 181.833,279.833 180.167,281.167 178.5,282.5C 177.167,282.5 175.833,282.5 174.5,282.5C 174.918,281.778 175.584,281.278 176.5,281C 176.167,280.667 175.833,280.333 175.5,280C 179.449,280.146 181.449,278.312 181.5,274.5C 180.494,271.054 178.828,271.054 176.5,274.5C 175.548,272.955 175.215,271.288 175.5,269.5C 178.265,269.202 180.765,268.202 183,266.5C 185,267.167 187,267.833 189,268.5C 189.333,267.833 189.667,267.167 190,266.5C 191.087,268.932 191.587,268.598 191.5,265.5C 193.898,267.565 196.565,267.898 199.5,266.5C 201.516,261.531 199.849,259.197 194.5,259.5C 194.918,258.778 195.584,258.278 196.5,258C 195.833,257.667 195.167,257.333 194.5,257C 195.563,255.812 196.897,255.312 198.5,255.5C 198.335,252.482 198.502,249.482 199,246.5C 199.833,245.667 200.667,244.833 201.5,244C 200.295,241.766 200.961,240.099 203.5,239C 200.833,238.333 200.833,237.667 203.5,237C 199.6,234.049 199.933,231.382 204.5,229C 208.419,229.436 210.752,227.77 211.5,224C 211.563,220.909 211.396,217.742 211,214.5C 212.667,212.833 214.333,211.167 216,209.5C 217.726,210.576 219.559,210.743 221.5,210C 218.887,208.929 218.887,208.095 221.5,207.5 Z" data-index="101"></path></g>
<g><path style="opacity:1" fill="#3d0b17" d="M 227.5,225.5 C 224.129,226.912 220.629,227.912 217,228.5C 217.887,230.821 218.72,233.321 219.5,236C 218.058,241.057 214.725,243.057 209.5,242C 205.364,239.324 204.531,235.824 207,231.5C 209.574,229.998 212.407,228.998 215.5,228.5C 215.833,227.833 216.167,227.167 216.5,226.5C 211.663,222.323 211.329,217.823 215.5,213C 222.875,209.519 227.875,211.519 230.5,219C 229.97,221.443 228.97,223.61 227.5,225.5 Z" data-index="102"></path></g>
<g><path style="opacity:1" fill="#400e1a" d="M 209.5,255.5 C 207.417,257.604 205.083,257.938 202.5,256.5C 199.996,254.318 199.33,251.651 200.5,248.5C 202.816,247.068 205.316,246.068 208,245.5C 211.42,248.579 211.92,251.912 209.5,255.5 Z" data-index="103"></path></g>
<g><path style="opacity:1" fill="#3b131d" d="M 194.5,259.5 C 199.849,259.197 201.516,261.531 199.5,266.5C 196.565,267.898 193.898,267.565 191.5,265.5C 191.025,262.687 192.025,260.687 194.5,259.5 Z" data-index="104"></path></g>
<g><path style="opacity:1" fill="#431420" d="M 191.5,276.5 C 190.313,278.975 188.313,279.975 185.5,279.5C 185.158,278.662 184.492,278.328 183.5,278.5C 181.638,272.178 184.138,269.178 191,269.5C 190.914,271.641 191.081,273.974 191.5,276.5 Z" data-index="105"></path></g>
<g><path style="opacity:1" fill="#90797f" d="M 183.5,278.5 C 184.492,278.328 185.158,278.662 185.5,279.5C 182.833,280.167 181.167,281.833 180.5,284.5C 179.5,284.167 178.833,283.5 178.5,282.5C 180.167,281.167 181.833,279.833 183.5,278.5 Z" data-index="106"></path></g>
<g><path style="opacity:1" fill="#37101a" d="M 174.5,282.5 C 175.833,282.5 177.167,282.5 178.5,282.5C 178.833,283.5 179.5,284.167 180.5,284.5C 180.505,288 178.838,289.5 175.5,289C 173.176,287.175 172.843,285.009 174.5,282.5 Z" data-index="107"></path></g>
<g><path style="opacity:1" fill="#311e22" d="M 168.5,295.5 C 167.167,295.5 165.833,295.5 164.5,295.5C 164.5,294.167 164.5,292.833 164.5,291.5C 166.167,291.5 167.833,291.5 169.5,291.5C 169.567,292.959 169.234,294.292 168.5,295.5 Z" data-index="108"></path></g>
</svg>