<?xml version="1.0" encoding="UTF-8"?>
<!DOCTYPE svg PUBLIC "-//W3C//DTD SVG 1.1//EN" "http://www.w3.org/Graphics/SVG/1.1/DTD/svg11.dtd">
<svg xmlns="http://www.w3.org/2000/svg" version="1.1" viewBox="0 0 179 108" style="shape-rendering:geometricPrecision; text-rendering:geometricPrecision; image-rendering:optimizeQuality; fill-rule:evenodd; clip-rule:evenodd" xmlns:xlink="http://www.w3.org/1999/xlink">
<g><path style="opacity:1" fill="#203249" d="M 74.5,-0.5 C 85.1667,-0.5 95.8333,-0.5 106.5,-0.5C 121.897,1.68615 136.564,6.35281 150.5,13.5C 157.277,17.6528 163.444,22.6528 169,28.5C 172.571,32.9754 175.071,37.9754 176.5,43.5C 176.819,48.3633 176.486,53.03 175.5,57.5C 176.012,50.9694 175.178,44.6361 173,38.5C 158.585,18.5387 139.085,7.2054 114.5,4.5C 113.791,3.59603 112.791,3.26269 111.5,3.5C 103.885,2.04015 96.0513,1.37348 88,1.5C 83.1667,1.66667 78.3333,1.83333 73.5,2C 72.5842,2.27842 71.9175,2.77842 71.5,3.5C 61.7449,4.57927 52.4116,6.9126 43.5,10.5C 41.0326,10.7549 39.0326,11.7549 37.5,13.5C 34.1511,14.1695 31.4844,15.8361 29.5,18.5C 26.3257,19.0102 23.9923,20.6769 22.5,23.5C 16.387,26.9471 12.0536,31.9471 9.5,38.5C 8.09368,38.9731 7.42702,39.9731 7.5,41.5C 3.43433,60.1545 9.43433,74.8211 25.5,85.5C 36.6398,94.1128 49.3065,99.4461 63.5,101.5C 63.5,101.833 63.5,102.167 63.5,102.5C 61.8333,102.5 60.1667,102.5 58.5,102.5C 41.511,99.0126 26.6776,91.3459 14,79.5C 1.22601,63.89 0.226007,47.5566 11,30.5C 28.3898,12.4259 49.5565,2.09253 74.5,-0.5 Z"/></g>
<g><path style="opacity:1" fill="#6f7a35" d="M 111.5,3.5 C 98.153,2.31946 84.8196,2.31946 71.5,3.5C 71.9175,2.77842 72.5842,2.27842 73.5,2C 78.3333,1.83333 83.1667,1.66667 88,1.5C 96.0513,1.37348 103.885,2.04015 111.5,3.5 Z"/></g>
<g><path style="opacity:1" fill="#ead535" d="M 111.5,3.5 C 112.791,3.26269 113.791,3.59603 114.5,4.5C 112.5,4.5 110.5,4.5 108.5,4.5C 95.5,4.5 82.5,4.5 69.5,4.5C 64.6875,6.0695 59.6875,7.23617 54.5,8C 51.211,10.2088 47.5443,11.0421 43.5,10.5C 52.4116,6.9126 61.7449,4.57927 71.5,3.5C 84.8196,2.31946 98.153,2.31946 111.5,3.5 Z"/></g>
<g><path style="opacity:0.004" fill="#fefffe" d="M 159.5,3.5 C 160.833,4.16667 160.833,4.16667 159.5,3.5 Z"/></g>
<g><path style="opacity:1" fill="#fcd40b" d="M 69.5,4.5 C 82.5,4.5 95.5,4.5 108.5,4.5C 108.082,5.22158 107.416,5.72158 106.5,6C 107.672,6.41862 108.672,7.08529 109.5,8C 111.443,7.69482 113.443,7.69482 115.5,8C 112.952,10.4416 109.952,12.1083 106.5,13C 107.333,13.1667 108.167,13.3333 109,13.5C 113.029,11.3223 117.196,9.82229 121.5,9C 124.833,8.33333 128.167,8.33333 131.5,9C 130.833,9.33333 130.167,9.66667 129.5,10C 129.833,11 130.167,12 130.5,13C 128.009,13.6259 128.009,14.4593 130.5,15.5C 130.069,16.2935 129.735,17.1268 129.5,18C 127.64,19.4164 125.973,20.9164 124.5,22.5C 124.5,22.8333 124.5,23.1667 124.5,23.5C 121.843,23.9348 119.509,24.9348 117.5,26.5C 112.142,29.527 108.142,33.8603 105.5,39.5C 103.939,42.7349 101.606,45.4016 98.5,47.5C 94.4764,48.0381 90.4764,48.7048 86.5,49.5C 86.8128,45.9581 86.4794,42.6248 85.5,39.5C 80.9677,39.1818 76.6344,39.5151 72.5,40.5C 71.6728,45.9851 71.1728,51.6518 71,57.5C 70.6174,56.944 70.1174,56.6107 69.5,56.5C 68.6069,50.0327 65.2736,45.3661 59.5,42.5C 58.0697,41.4625 56.403,40.7959 54.5,40.5C 51.3752,39.5206 48.0419,39.1872 44.5,39.5C 44.1667,39.5 43.8333,39.5 43.5,39.5C 42.5489,38.0813 42.2155,36.4147 42.5,34.5C 43.4584,34.0472 44.2917,33.3805 45,32.5C 45.3333,33.1667 45.6667,33.8333 46,34.5C 48.6479,32.799 51.4812,31.9656 54.5,32C 51.1667,33.6667 47.8333,35.3333 44.5,37C 49.9921,38.2863 55.6587,38.953 61.5,39C 63.9913,39.6259 63.9913,40.4593 61.5,41.5C 62.5,42.3333 63.5,43.1667 64.5,44C 65.7441,44.4561 66.5774,43.9561 67,42.5C 68.5272,44.221 69.5272,46.221 70,48.5C 70.2117,45.2423 70.7117,42.0757 71.5,39C 69.8333,39.3333 68.1667,39.6667 66.5,40C 67.9813,35.2304 68.9813,30.7304 69.5,26.5C 70.5,26.5 71.5,26.5 72.5,26.5C 72.3502,22.0197 70.0168,20.0197 65.5,20.5C 65.238,19.0222 65.5713,17.6888 66.5,16.5C 74.9881,18.2561 75.4881,17.2561 68,13.5C 67.3123,12.6683 67.479,12.0016 68.5,11.5C 71.4063,13.9794 74.4063,14.1461 77.5,12C 75.9632,10.8904 75.2965,9.39037 75.5,7.5C 73.6096,7.2965 72.1096,7.96317 71,9.5C 69.6667,6.83333 68.3333,6.83333 67,9.5C 67.0579,7.5646 67.8912,5.89793 69.5,4.5 Z"/></g>
<g><path style="opacity:0.004" fill="#fefffe" d="M 139.5,4.5 C 140.833,5.16667 140.833,5.16667 139.5,4.5 Z"/></g>
<g><path style="opacity:0.004" fill="#fefffe" d="M 164.5,5.5 C 165.833,6.16667 165.833,6.16667 164.5,5.5 Z"/></g>
<g><path style="opacity:1" fill="#fdd403" d="M 69.5,4.5 C 67.8912,5.89793 67.0579,7.5646 67,9.5C 68.3333,6.83333 69.6667,6.83333 71,9.5C 72.1096,7.96317 73.6096,7.2965 75.5,7.5C 75.2965,9.39037 75.9632,10.8904 77.5,12C 74.4063,14.1461 71.4063,13.9794 68.5,11.5C 67.479,12.0016 67.3123,12.6683 68,13.5C 75.4881,17.2561 74.9881,18.2561 66.5,16.5C 65.5713,17.6888 65.238,19.0222 65.5,20.5C 70.0168,20.0197 72.3502,22.0197 72.5,26.5C 71.5,26.5 70.5,26.5 69.5,26.5C 68.9813,30.7304 67.9813,35.2304 66.5,40C 68.1667,39.6667 69.8333,39.3333 71.5,39C 70.7117,42.0757 70.2117,45.2423 70,48.5C 69.5272,46.221 68.5272,44.221 67,42.5C 66.5774,43.9561 65.7441,44.4561 64.5,44C 63.5,43.1667 62.5,42.3333 61.5,41.5C 63.9913,40.4593 63.9913,39.6259 61.5,39C 55.6587,38.953 49.9921,38.2863 44.5,37C 47.8333,35.3333 51.1667,33.6667 54.5,32C 51.4812,31.9656 48.6479,32.799 46,34.5C 45.6667,33.8333 45.3333,33.1667 45,32.5C 44.2917,33.3805 43.4584,34.0472 42.5,34.5C 42.8242,30.4454 42.4909,26.4454 41.5,22.5C 37.1802,21.8885 32.8468,21.2218 28.5,20.5C 28.8627,19.8165 29.1961,19.1499 29.5,18.5C 31.4844,15.8361 34.1511,14.1695 37.5,13.5C 39.9674,13.2451 41.9674,12.2451 43.5,10.5C 47.5443,11.0421 51.211,10.2088 54.5,8C 59.6875,7.23617 64.6875,6.0695 69.5,4.5 Z"/></g>
<g><path style="opacity:1" fill="#a3a546" d="M 43.5,10.5 C 41.9674,12.2451 39.9674,13.2451 37.5,13.5C 39.0326,11.7549 41.0326,10.7549 43.5,10.5 Z"/></g>
<g><path style="opacity:1" fill="#fad414" d="M 108.5,4.5 C 110.5,4.5 112.5,4.5 114.5,4.5C 139.085,7.2054 158.585,18.5387 173,38.5C 175.178,44.6361 176.012,50.9694 175.5,57.5C 175.5,58.5 175.5,59.5 175.5,60.5C 173.991,63.6777 172.658,67.0111 171.5,70.5C 170.094,70.9731 169.427,71.9731 169.5,73.5C 161.817,83.1746 152.151,90.1746 140.5,94.5C 140.423,93.2502 139.756,92.4169 138.5,92C 141.528,92.0569 144.528,91.2236 147.5,89.5C 146.675,88.6143 145.675,88.281 144.5,88.5C 144.972,85.6421 143.972,83.6421 141.5,82.5C 145.702,82.8168 149.702,82.4834 153.5,81.5C 154.657,73.0099 154.824,64.3433 154,55.5C 153.4,53.0904 152.234,51.0904 150.5,49.5C 150.489,47.9826 149.823,46.8159 148.5,46C 141.446,40.2316 133.78,39.065 125.5,42.5C 124.167,42.8333 122.833,43.1667 121.5,43.5C 120.167,43.5 119.5,42.8333 119.5,41.5C 119.833,40.5 120.5,39.8333 121.5,39.5C 122.833,38.8333 123.833,37.8333 124.5,36.5C 125.391,35.8902 126.391,35.5569 127.5,35.5C 128.5,35.5 129.5,35.5 130.5,35.5C 130.5,31.1667 130.5,26.8333 130.5,22.5C 128.5,22.5 126.5,22.5 124.5,22.5C 125.973,20.9164 127.64,19.4164 129.5,18C 129.735,17.1268 130.069,16.2935 130.5,15.5C 128.009,14.4593 128.009,13.6259 130.5,13C 130.167,12 129.833,11 129.5,10C 130.167,9.66667 130.833,9.33333 131.5,9C 128.167,8.33333 124.833,8.33333 121.5,9C 117.196,9.82229 113.029,11.3223 109,13.5C 108.167,13.3333 107.333,13.1667 106.5,13C 109.952,12.1083 112.952,10.4416 115.5,8C 113.443,7.69482 111.443,7.69482 109.5,8C 108.672,7.08529 107.672,6.41862 106.5,6C 107.416,5.72158 108.082,5.22158 108.5,4.5 Z"/></g>
<g><path style="opacity:0.004" fill="#fefffe" d="M 150.5,12.5 C 151.833,13.1667 151.833,13.1667 150.5,12.5 Z"/></g>
<g><path style="opacity:0.004" fill="#fefffe" d="M 3.5,21.5 C 4.83333,22.1667 4.83333,22.1667 3.5,21.5 Z"/></g>
<g><path style="opacity:1" fill="#fad30c" d="M 27.5,23.5 C 26.3393,37.3272 26.1727,51.3272 27,65.5C 27.7714,70.4326 29.7714,74.7659 33,78.5C 33.3826,77.944 33.8826,77.6107 34.5,77.5C 34.8333,77.5 35.1667,77.5 35.5,77.5C 35.8333,78.1667 36.1667,78.8333 36.5,79.5C 39.0177,82.078 41.8511,84.4114 45,86.5C 44.3913,92.7023 41.558,93.8689 36.5,90C 37.9255,88.2859 37.5922,86.9525 35.5,86C 32.2861,85.9178 28.9528,85.7511 25.5,85.5C 9.43433,74.8211 3.43433,60.1545 7.5,41.5C 8.90632,41.0269 9.57298,40.0269 9.5,38.5C 12.0536,31.9471 16.387,26.9471 22.5,23.5C 24.0443,23.2969 25.3777,22.6302 26.5,21.5C 27.2975,21.9569 27.6309,22.6236 27.5,23.5 Z"/></g>
<g><path style="opacity:1" fill="#1e3756" d="M 82.5,24.5 C 75.3742,24.3631 75.0408,25.0298 81.5,26.5C 79.7045,27.1414 78.2045,28.1414 77,29.5C 76.7508,28.376 76.2508,27.376 75.5,26.5C 74.5258,28.7427 74.1924,31.076 74.5,33.5C 72.0325,31.1585 71.8658,28.4918 74,25.5C 76.6975,23.327 79.5308,22.9937 82.5,24.5 Z"/></g>
<g><path style="opacity:1" fill="#2c3923" d="M 124.5,23.5 C 124.5,23.1667 124.5,22.8333 124.5,22.5C 126.5,22.5 128.5,22.5 130.5,22.5C 130.5,26.8333 130.5,31.1667 130.5,35.5C 129.5,35.5 128.5,35.5 127.5,35.5C 129.318,31.8274 129.984,27.8274 129.5,23.5C 127.833,23.5 126.167,23.5 124.5,23.5 Z"/></g>
<g><path style="opacity:1" fill="#0f3772" d="M 82.5,24.5 C 84.5106,25.4166 85.5106,27.0832 85.5,29.5C 85.2755,31.4547 84.6089,33.1213 83.5,34.5C 80.4299,34.6323 77.4299,34.299 74.5,33.5C 74.1924,31.076 74.5258,28.7427 75.5,26.5C 76.2508,27.376 76.7508,28.376 77,29.5C 78.2045,28.1414 79.7045,27.1414 81.5,26.5C 75.0408,25.0298 75.3742,24.3631 82.5,24.5 Z"/></g>
<g><path style="opacity:1" fill="#ebd842" d="M 27.5,23.5 C 27.3334,36.8375 27.5001,50.1708 28,63.5C 28.3808,69.0762 30.5475,73.7428 34.5,77.5C 33.8826,77.6107 33.3826,77.944 33,78.5C 29.7714,74.7659 27.7714,70.4326 27,65.5C 26.1727,51.3272 26.3393,37.3272 27.5,23.5 Z"/></g>
<g><path style="opacity:1" fill="#2a3e42" d="M 117.5,26.5 C 114.533,29.3022 111.7,32.3022 109,35.5C 108.508,36.549 108.674,37.549 109.5,38.5C 108.311,39.4287 106.978,39.762 105.5,39.5C 108.142,33.8603 112.142,29.527 117.5,26.5 Z"/></g>
<g><path style="opacity:1" fill="#203038" d="M 74.5,33.5 C 77.4299,34.299 80.4299,34.6323 83.5,34.5C 80.1225,37.4236 77.1225,37.0903 74.5,33.5 Z"/></g>
<g><path style="opacity:1" fill="#5d672e" d="M 124.5,36.5 C 123.833,37.8333 122.833,38.8333 121.5,39.5C 121.5,37.5 122.5,36.5 124.5,36.5 Z"/></g>
<g><path style="opacity:0.004" fill="#fefffe" d="M 3.5,39.5 C 4.83333,40.1667 4.83333,40.1667 3.5,39.5 Z"/></g>
<g><path style="opacity:1" fill="#627234" d="M 9.5,38.5 C 9.57298,40.0269 8.90632,41.0269 7.5,41.5C 7.42702,39.9731 8.09368,38.9731 9.5,38.5 Z"/></g>
<g><path style="opacity:1" fill="#24384d" d="M 150.5,49.5 C 147.865,46.5189 144.532,45.1856 140.5,45.5C 140.5,44.5 140.5,43.5 140.5,42.5C 135.5,42.5 130.5,42.5 125.5,42.5C 133.78,39.065 141.446,40.2316 148.5,46C 149.823,46.8159 150.489,47.9826 150.5,49.5 Z"/></g>
<g><path style="opacity:1" fill="#22373a" d="M 125.5,42.5 C 123.498,44.4818 121.165,46.1484 118.5,47.5C 119.5,46.1667 120.5,44.8333 121.5,43.5C 122.833,43.1667 124.167,42.8333 125.5,42.5 Z"/></g>
<g><path style="opacity:1" fill="#778550" d="M 43.5,39.5 C 43.8333,39.5 44.1667,39.5 44.5,39.5C 44.5,43.8333 44.5,48.1667 44.5,52.5C 46.8333,52.5 49.1667,52.5 51.5,52.5C 51.5,52.8333 51.5,53.1667 51.5,53.5C 48.8333,53.5 46.1667,53.5 43.5,53.5C 43.5,48.8333 43.5,44.1667 43.5,39.5 Z"/></g>
<g><path style="opacity:1" fill="#cbc65c" d="M 119.5,41.5 C 119.5,42.8333 120.167,43.5 121.5,43.5C 120.5,44.8333 119.5,46.1667 118.5,47.5C 116.178,48.8021 114.845,50.8021 114.5,53.5C 112.326,58.6083 111.993,63.9416 113.5,69.5C 112.883,69.3893 112.383,69.056 112,68.5C 112.094,64.3673 111.26,60.7006 109.5,57.5C 112.336,51.8222 115.669,46.4888 119.5,41.5 Z"/></g>
<g><path style="opacity:0.999" fill="#083974" d="M 124.5,23.5 C 126.167,23.5 127.833,23.5 129.5,23.5C 129.984,27.8274 129.318,31.8274 127.5,35.5C 126.391,35.5569 125.391,35.8902 124.5,36.5C 122.5,36.5 121.5,37.5 121.5,39.5C 120.5,39.8333 119.833,40.5 119.5,41.5C 115.669,46.4888 112.336,51.8222 109.5,57.5C 108.508,57.3284 107.842,57.6618 107.5,58.5C 101.954,60.3171 96.2877,61.6505 90.5,62.5C 90.5,59.1667 90.5,55.8333 90.5,52.5C 98.3147,51.3484 103.315,47.0151 105.5,39.5C 106.978,39.762 108.311,39.4287 109.5,38.5C 108.674,37.549 108.508,36.549 109,35.5C 111.7,32.3022 114.533,29.3022 117.5,26.5C 119.509,24.9348 121.843,23.9348 124.5,23.5 Z"/></g>
<g><path style="opacity:1" fill="#1b3747" d="M 44.5,39.5 C 48.0419,39.1872 51.3752,39.5206 54.5,40.5C 51.5,40.5 48.5,40.5 45.5,40.5C 45.5,43.8333 45.5,47.1667 45.5,50.5C 48.0821,50.0254 50.0821,50.6921 51.5,52.5C 49.1667,52.5 46.8333,52.5 44.5,52.5C 44.5,48.1667 44.5,43.8333 44.5,39.5 Z"/></g>
<g><path style="opacity:1" fill="#0a2c4d" d="M 84.5,40.5 C 84.5,40.8333 84.5,41.1667 84.5,41.5C 81.1667,41.5 77.8333,41.5 74.5,41.5C 74.5,54.5 74.5,67.5 74.5,80.5C 73.5044,67.3438 73.1711,54.0105 73.5,40.5C 77.1667,40.5 80.8333,40.5 84.5,40.5 Z"/></g>
<g><path style="opacity:1" fill="#203746" d="M 105.5,39.5 C 103.315,47.0151 98.3147,51.3484 90.5,52.5C 90.5,55.8333 90.5,59.1667 90.5,62.5C 96.2877,61.6505 101.954,60.3171 107.5,58.5C 102.399,62.898 96.3994,64.5647 89.5,63.5C 89.5,59.5 89.5,55.5 89.5,51.5C 90.791,51.7373 91.791,51.404 92.5,50.5C 94.9674,50.2451 96.9674,49.2451 98.5,47.5C 101.606,45.4016 103.939,42.7349 105.5,39.5 Z"/></g>
<g><path style="opacity:1" fill="#112d5e" d="M 176.5,43.5 C 177.167,44.5 177.833,45.5 178.5,46.5C 178.5,50.8333 178.5,55.1667 178.5,59.5C 177.558,62.6552 176.224,65.6552 174.5,68.5C 174.833,65.8333 175.167,63.1667 175.5,60.5C 175.5,59.5 175.5,58.5 175.5,57.5C 176.486,53.03 176.819,48.3633 176.5,43.5 Z"/></g>
<g><path style="opacity:1" fill="#646c1c" d="M 92.5,50.5 C 91.791,51.404 90.791,51.7373 89.5,51.5C 89.5,55.5 89.5,59.5 89.5,63.5C 88.5151,59.3656 88.1818,55.0323 88.5,50.5C 89.8333,50.5 91.1667,50.5 92.5,50.5 Z"/></g>
<g><path style="opacity:1" fill="#223945" d="M 114.5,53.5 C 114.03,61.077 115.03,68.4103 117.5,75.5C 115.674,73.8525 114.34,71.8525 113.5,69.5C 111.993,63.9416 112.326,58.6083 114.5,53.5 Z"/></g>
<g><path style="opacity:1" fill="#083977" d="M 54.5,40.5 C 56.403,40.7959 58.0697,41.4625 59.5,42.5C 60.7417,44.2501 62.2417,45.9168 64,47.5C 64.5946,48.8989 64.4279,50.2322 63.5,51.5C 64.2739,52.7112 65.1072,52.7112 66,51.5C 68.4013,56.2317 69.068,61.2317 68,66.5C 66.7308,67.9047 66.2308,69.5714 66.5,71.5C 64.9081,70.3984 64.0748,71.065 64,73.5C 62.6841,70.972 61.5174,70.972 60.5,73.5C 59.3044,73.1543 59.3044,72.6543 60.5,72C 57.7053,70.9532 55.3719,69.4532 53.5,67.5C 56.2202,64.3221 57.0536,60.6555 56,56.5C 54.871,54.8588 53.371,53.8588 51.5,53.5C 51.5,53.1667 51.5,52.8333 51.5,52.5C 50.0821,50.6921 48.0821,50.0254 45.5,50.5C 45.5,47.1667 45.5,43.8333 45.5,40.5C 48.5,40.5 51.5,40.5 54.5,40.5 Z"/></g>
<g><path style="opacity:1" fill="#203749" d="M 59.5,42.5 C 65.2736,45.3661 68.6069,50.0327 69.5,56.5C 69.5,59.5 69.5,62.5 69.5,65.5C 69.2451,67.9674 68.2451,69.9674 66.5,71.5C 66.2308,69.5714 66.7308,67.9047 68,66.5C 69.068,61.2317 68.4013,56.2317 66,51.5C 65.1072,52.7112 64.2739,52.7112 63.5,51.5C 64.4279,50.2322 64.5946,48.8989 64,47.5C 62.2417,45.9168 60.7417,44.2501 59.5,42.5 Z"/></g>
<g><path style="opacity:1" fill="#e0d043" d="M 29.5,18.5 C 29.1961,19.1499 28.8627,19.8165 28.5,20.5C 32.8468,21.2218 37.1802,21.8885 41.5,22.5C 42.4909,26.4454 42.8242,30.4454 42.5,34.5C 42.2155,36.4147 42.5489,38.0813 43.5,39.5C 43.5,44.1667 43.5,48.8333 43.5,53.5C 46.1667,53.5 48.8333,53.5 51.5,53.5C 53.371,53.8588 54.871,54.8588 56,56.5C 57.0536,60.6555 56.2202,64.3221 53.5,67.5C 47.8736,69.8111 43.5403,68.4778 40.5,63.5C 40.5,50.1667 40.5,36.8333 40.5,23.5C 36.1667,23.5 31.8333,23.5 27.5,23.5C 27.6309,22.6236 27.2975,21.9569 26.5,21.5C 25.3777,22.6302 24.0443,23.2969 22.5,23.5C 23.9923,20.6769 26.3257,19.0102 29.5,18.5 Z"/></g>
<g><path style="opacity:1" fill="#fcd404" d="M 43.5,53.5 C 46.3054,54.3195 49.3054,54.8195 52.5,55C 56.7051,58.6279 56.3718,61.4612 51.5,63.5C 51.5,64.5 51.5,65.5 51.5,66.5C 48.3979,66.846 45.5645,66.1793 43,64.5C 42.1901,60.6425 42.3567,56.9758 43.5,53.5 Z"/></g>
<g><path style="opacity:1" fill="#475a25" d="M 85.5,39.5 C 85.5,39.8333 85.5,40.1667 85.5,40.5C 85.1667,40.5 84.8333,40.5 84.5,40.5C 80.8333,40.5 77.1667,40.5 73.5,40.5C 73.1711,54.0105 73.5044,67.3438 74.5,80.5C 74.5,80.8333 74.5,81.1667 74.5,81.5C 73.5084,81.6716 72.8417,81.3382 72.5,80.5C 72.5,67.1667 72.5,53.8333 72.5,40.5C 76.6344,39.5151 80.9677,39.1818 85.5,39.5 Z"/></g>
<g><path style="opacity:1" fill="#02397a" d="M 84.5,41.5 C 84.5,54.5 84.5,67.5 84.5,80.5C 81.1667,80.5 77.8333,80.5 74.5,80.5C 74.5,67.5 74.5,54.5 74.5,41.5C 77.8333,41.5 81.1667,41.5 84.5,41.5 Z"/></g>
<g><path style="opacity:1" fill="#fdd409" d="M 98.5,47.5 C 96.9674,49.2451 94.9674,50.2451 92.5,50.5C 91.1667,50.5 89.8333,50.5 88.5,50.5C 88.1818,55.0323 88.5151,59.3656 89.5,63.5C 96.3994,64.5647 102.399,62.898 107.5,58.5C 107.842,57.6618 108.508,57.3284 109.5,57.5C 111.26,60.7006 112.094,64.3673 112,68.5C 112.383,69.056 112.883,69.3893 113.5,69.5C 114.34,71.8525 115.674,73.8525 117.5,75.5C 119.219,78.2195 121.553,80.2195 124.5,81.5C 124.918,82.2216 125.584,82.7216 126.5,83C 130.486,83.4988 134.486,83.6655 138.5,83.5C 138.833,83.5 139.167,83.5 139.5,83.5C 140.167,83.1667 140.833,82.8333 141.5,82.5C 143.972,83.6421 144.972,85.6421 144.5,88.5C 145.675,88.281 146.675,88.6143 147.5,89.5C 144.528,91.2236 141.528,92.0569 138.5,92C 139.756,92.4169 140.423,93.2502 140.5,94.5C 140.167,94.5 139.833,94.5 139.5,94.5C 132.479,96.6711 125.312,98.3378 118,99.5C 117.127,99.2645 116.293,98.9312 115.5,98.5C 112.223,99.2537 108.89,99.7537 105.5,100C 104.692,100.308 104.025,100.808 103.5,101.5C 92.8541,102.499 82.1874,102.832 71.5,102.5C 68.7342,100.52 65.7342,98.6871 62.5,97C 64.7687,97.3744 67.102,97.3744 69.5,97C 70.2106,95.7453 71.044,94.5786 72,93.5C 74.3543,93.8916 76.8543,93.8916 79.5,93.5C 79.5,92.1667 79.5,90.8333 79.5,89.5C 82.8438,90.5986 86.1771,90.2652 89.5,88.5C 88.3595,87.5745 88.3595,86.7412 89.5,86C 88.6667,85.1667 87.8333,84.3333 87,83.5C 86.5001,72.1716 86.3335,60.8382 86.5,49.5C 90.4764,48.7048 94.4764,48.0381 98.5,47.5 Z"/></g>
<g><path style="opacity:1" fill="#143036" d="M 84.5,40.5 C 84.8333,40.5 85.1667,40.5 85.5,40.5C 85.5,54.1667 85.5,67.8333 85.5,81.5C 81.8333,81.5 78.1667,81.5 74.5,81.5C 74.5,81.1667 74.5,80.8333 74.5,80.5C 77.8333,80.5 81.1667,80.5 84.5,80.5C 84.5,67.5 84.5,54.5 84.5,41.5C 84.5,41.1667 84.5,40.8333 84.5,40.5 Z"/></g>
<g><path style="opacity:1" fill="#063975" d="M 125.5,42.5 C 130.5,42.5 135.5,42.5 140.5,42.5C 140.5,43.5 140.5,44.5 140.5,45.5C 144.532,45.1856 147.865,46.5189 150.5,49.5C 152.293,59.7096 152.959,70.043 152.5,80.5C 149.167,80.5 145.833,80.5 142.5,80.5C 142.825,72.9809 142.492,65.6476 141.5,58.5C 136.413,51.8753 131.246,51.8753 126,58.5C 125.204,61.0385 125.371,63.3718 126.5,65.5C 126.833,66.1667 127.167,66.8333 127.5,67.5C 128.436,68.9744 129.77,69.9744 131.5,70.5C 133.017,71.7349 134.684,71.7349 136.5,70.5C 137.491,74.4454 137.824,78.4454 137.5,82.5C 133.131,82.5328 128.798,82.1995 124.5,81.5C 121.553,80.2195 119.219,78.2195 117.5,75.5C 115.03,68.4103 114.03,61.077 114.5,53.5C 114.845,50.8021 116.178,48.8021 118.5,47.5C 121.165,46.1484 123.498,44.4818 125.5,42.5 Z"/></g>
<g><path style="opacity:1" fill="#fbd508" d="M 139.5,69.5 C 135.642,68.7063 131.642,68.0397 127.5,67.5C 127.167,66.8333 126.833,66.1667 126.5,65.5C 126.322,57.3607 130.322,54.5274 138.5,57C 140.059,58.9958 140.726,61.3291 140.5,64C 140.494,66.0326 140.161,67.866 139.5,69.5 Z"/></g>
<g><path style="opacity:1" fill="#1e3a63" d="M 27.5,23.5 C 31.8333,23.5 36.1667,23.5 40.5,23.5C 40.5,36.8333 40.5,50.1667 40.5,63.5C 43.5403,68.4778 47.8736,69.8111 53.5,67.5C 55.3719,69.4532 57.7053,70.9532 60.5,72C 59.3044,72.6543 59.3044,73.1543 60.5,73.5C 61.5174,70.972 62.6841,70.972 64,73.5C 64.0748,71.065 64.9081,70.3984 66.5,71.5C 64.3619,76.2994 60.6952,79.2994 55.5,80.5C 48.5875,80.8937 41.9208,79.8937 35.5,77.5C 35.1667,77.5 34.8333,77.5 34.5,77.5C 30.5475,73.7428 28.3808,69.0762 28,63.5C 27.5001,50.1708 27.3334,36.8375 27.5,23.5 Z"/></g>
<g><path style="opacity:1" fill="#023a77" d="M 40.5,63.5 C 40.6495,64.552 40.4828,65.552 40,66.5C 37.9637,67.102 36.1303,68.102 34.5,69.5C 33.4495,68.1152 32.1161,67.1152 30.5,66.5C 29.5008,52.5159 29.1674,38.5159 29.5,24.5C 32.5,24.5 35.5,24.5 38.5,24.5C 38.3334,37.1711 38.5001,49.8377 39,62.5C 39.3826,63.056 39.8826,63.3893 40.5,63.5 Z"/></g>
<g><path style="opacity:1" fill="#d9d95d" d="M 72.5,40.5 C 72.5,53.8333 72.5,67.1667 72.5,80.5C 71.6733,75.3491 71.1733,70.0158 71,64.5C 70.6174,65.056 70.1174,65.3893 69.5,65.5C 69.5,62.5 69.5,59.5 69.5,56.5C 70.1174,56.6107 70.6174,56.944 71,57.5C 71.1728,51.6518 71.6728,45.9851 72.5,40.5 Z"/></g>
<g><path style="opacity:1" fill="#3b4e30" d="M 171.5,70.5 C 171.573,72.0269 170.906,73.0269 169.5,73.5C 169.427,71.9731 170.094,70.9731 171.5,70.5 Z"/></g>
<g><path style="opacity:1" fill="#2a3c2a" d="M 138.5,83.5 C 134.486,83.6655 130.486,83.4988 126.5,83C 125.584,82.7216 124.918,82.2216 124.5,81.5C 128.798,82.1995 133.131,82.5328 137.5,82.5C 137.824,78.4454 137.491,74.4454 136.5,70.5C 134.684,71.7349 133.017,71.7349 131.5,70.5C 133.806,70.0074 136.139,69.6741 138.5,69.5C 138.5,74.1667 138.5,78.8333 138.5,83.5 Z"/></g>
<g><path style="opacity:1" fill="#c7be59" d="M 127.5,67.5 C 131.642,68.0397 135.642,68.7063 139.5,69.5C 139.5,74.1667 139.5,78.8333 139.5,83.5C 139.167,83.5 138.833,83.5 138.5,83.5C 138.5,78.8333 138.5,74.1667 138.5,69.5C 136.139,69.6741 133.806,70.0074 131.5,70.5C 129.77,69.9744 128.436,68.9744 127.5,67.5 Z"/></g>
<g><path style="opacity:1" fill="#f6d217" d="M 85.5,39.5 C 86.4794,42.6248 86.8128,45.9581 86.5,49.5C 86.3335,60.8382 86.5001,72.1716 87,83.5C 87.8333,84.3333 88.6667,85.1667 89.5,86C 88.3595,86.7412 88.3595,87.5745 89.5,88.5C 86.1771,90.2652 82.8438,90.5986 79.5,89.5C 79.5,90.8333 79.5,92.1667 79.5,93.5C 76.8543,93.8916 74.3543,93.8916 72,93.5C 71.044,94.5786 70.2106,95.7453 69.5,97C 67.102,97.3744 64.7687,97.3744 62.5,97C 65.7342,98.6871 68.7342,100.52 71.5,102.5C 68.8333,102.167 66.1667,101.833 63.5,101.5C 49.3065,99.4461 36.6398,94.1128 25.5,85.5C 28.9528,85.7511 32.2861,85.9178 35.5,86C 37.5922,86.9525 37.9255,88.2859 36.5,90C 41.558,93.8689 44.3913,92.7023 45,86.5C 41.8511,84.4114 39.0177,82.078 36.5,79.5C 40.0478,81.5197 43.8811,82.5197 48,82.5C 50.8655,82.7001 53.3655,82.0334 55.5,80.5C 60.6952,79.2994 64.3619,76.2994 66.5,71.5C 68.2451,69.9674 69.2451,67.9674 69.5,65.5C 70.1174,65.3893 70.6174,65.056 71,64.5C 71.1733,70.0158 71.6733,75.3491 72.5,80.5C 72.8417,81.3382 73.5084,81.6716 74.5,81.5C 78.1667,81.5 81.8333,81.5 85.5,81.5C 85.5,67.8333 85.5,54.1667 85.5,40.5C 85.5,40.1667 85.5,39.8333 85.5,39.5 Z"/></g>
<g><path style="opacity:1" fill="#243b37" d="M 150.5,49.5 C 152.234,51.0904 153.4,53.0904 154,55.5C 154.824,64.3433 154.657,73.0099 153.5,81.5C 149.5,81.5 145.5,81.5 141.5,81.5C 141.5,73.8333 141.5,66.1667 141.5,58.5C 142.492,65.6476 142.825,72.9809 142.5,80.5C 145.833,80.5 149.167,80.5 152.5,80.5C 152.959,70.043 152.293,59.7096 150.5,49.5 Z"/></g>
<g><path style="opacity:1" fill="#dfd13d" d="M 141.5,58.5 C 141.5,66.1667 141.5,73.8333 141.5,81.5C 145.5,81.5 149.5,81.5 153.5,81.5C 149.702,82.4834 145.702,82.8168 141.5,82.5C 140.833,82.8333 140.167,83.1667 139.5,83.5C 139.5,78.8333 139.5,74.1667 139.5,69.5C 140.161,67.866 140.494,66.0326 140.5,64C 140.726,61.3291 140.059,58.9958 138.5,57C 130.322,54.5274 126.322,57.3607 126.5,65.5C 125.371,63.3718 125.204,61.0385 126,58.5C 131.246,51.8753 136.413,51.8753 141.5,58.5 Z"/></g>
<g><path style="opacity:1" fill="#293c3b" d="M 35.5,77.5 C 41.9208,79.8937 48.5875,80.8937 55.5,80.5C 53.3655,82.0334 50.8655,82.7001 48,82.5C 43.8811,82.5197 40.0478,81.5197 36.5,79.5C 36.1667,78.8333 35.8333,78.1667 35.5,77.5 Z"/></g>
<g><path style="opacity:1" fill="#222b3c" d="M 175.5,60.5 C 175.167,63.1667 174.833,65.8333 174.5,68.5C 169.45,77.72 162.45,85.22 153.5,91C 148.047,94.0617 142.38,96.5617 136.5,98.5C 134.097,98.448 131.764,98.7814 129.5,99.5C 132.924,98.0747 136.258,96.408 139.5,94.5C 139.833,94.5 140.167,94.5 140.5,94.5C 152.151,90.1746 161.817,83.1746 169.5,73.5C 170.906,73.0269 171.573,72.0269 171.5,70.5C 172.658,67.0111 173.991,63.6777 175.5,60.5 Z"/></g>
<g><path style="opacity:0.004" fill="#fefffe" d="M 7.5,79.5 C 8.83333,80.1667 8.83333,80.1667 7.5,79.5 Z"/></g>
<g><path style="opacity:0.004" fill="#fefffe" d="M 7.5,88.5 C 8.83333,89.1667 8.83333,89.1667 7.5,88.5 Z"/></g>
<g><path style="opacity:0.004" fill="#fefffe" d="M 23.5,89.5 C 22.8333,88.1667 22.8333,88.1667 23.5,89.5 Z"/></g>
<g><path style="opacity:0.004" fill="#fefffe" d="M 23.5,89.5 C 24.8333,90.1667 24.8333,90.1667 23.5,89.5 Z"/></g>
<g><path style="opacity:0.004" fill="#fefffe" d="M 19.5,91.5 C 20.8333,92.1667 20.8333,92.1667 19.5,91.5 Z"/></g>
<g><path style="opacity:0.004" fill="#fefffe" d="M 168.5,93.5 C 169.833,94.1667 169.833,94.1667 168.5,93.5 Z"/></g>
<g><path style="opacity:1" fill="#dfca39" d="M 139.5,94.5 C 136.258,96.408 132.924,98.0747 129.5,99.5C 110.428,104.336 91.0943,105.67 71.5,103.5C 71.5,103.167 71.5,102.833 71.5,102.5C 82.1874,102.832 92.8541,102.499 103.5,101.5C 104.025,100.808 104.692,100.308 105.5,100C 108.89,99.7537 112.223,99.2537 115.5,98.5C 116.293,98.9312 117.127,99.2645 118,99.5C 125.312,98.3378 132.479,96.6711 139.5,94.5 Z"/></g>
<g><path style="opacity:0.004" fill="#fefffe" d="M 4.5,100.5 C 5.83333,101.167 5.83333,101.167 4.5,100.5 Z"/></g>
<g><path style="opacity:0.004" fill="#fefffe" d="M -0.5,101.5 C 0.833333,102.167 0.833333,102.167 -0.5,101.5 Z"/></g>
<g><path style="opacity:0.58" fill="#18223b" d="M 136.5,98.5 C 127.615,102.223 118.282,104.723 108.5,106C 96.8333,106.667 85.1667,106.667 73.5,106C 68.2422,105.386 63.2422,104.219 58.5,102.5C 60.1667,102.5 61.8333,102.5 63.5,102.5C 66.1272,103.092 68.7938,103.425 71.5,103.5C 91.0943,105.67 110.428,104.336 129.5,99.5C 131.764,98.7814 134.097,98.448 136.5,98.5 Z"/></g>
<g><path style="opacity:0.004" fill="#fefffe" d="M 167.5,101.5 C 168.833,102.167 168.833,102.167 167.5,101.5 Z"/></g>
<g><path style="opacity:0.004" fill="#fefffe" d="M 27.5,102.5 C 28.8333,103.167 28.8333,103.167 27.5,102.5 Z"/></g>
<g><path style="opacity:1" fill="#616931" d="M 63.5,102.5 C 63.5,102.167 63.5,101.833 63.5,101.5C 66.1667,101.833 68.8333,102.167 71.5,102.5C 71.5,102.833 71.5,103.167 71.5,103.5C 68.7938,103.425 66.1272,103.092 63.5,102.5 Z"/></g>
<g><path style="opacity:0.004" fill="#fefffe" d="M 132.5,102.5 C 133.833,103.167 133.833,103.167 132.5,102.5 Z"/></g>
</svg>
